# File created by Blade
# Date/Time:  Fri Jan 16 19:00:32 2015
#---------------------------------------------------------
:version 1.10
:name HOM
:units
  mass 1.0
  length 1.000000
  angle deg
:documentation
     Acclaim Skeleton File
:root
   axis xyz
   order TX TY TZ RX RY RZ
   position 0.000000 0.000000 0.000000
   orientation 0 0 0
:bonedata
   begin
      id 1
      name Spine_dum
      direction 0.000000 1.000000 0.000000
      length 7.067664
      axis 0.0 0.0 0.0 xyz
   end
   begin
      id 2
      name LeftUpLeg_dum
      direction 1.000000 0.000000 0.000000
      length 4.013002
      axis 0.0 0.0 0.0 xyz
   end
   begin
      id 3
      name RightUpLeg_dum
      direction -1.000000 0.000000 0.000000
      length 4.013002
      axis 0.0 0.0 0.0 xyz
   end
   begin
      id 4
      name Spine
      direction 0.000000 1.000000 0.000000
      length 0.000000
      axis 0.0 0.0 0.0 xyz
      dof rx ry rz
   end
   begin
      id 5
      name Spine_dum1
      direction 0.000000 1.000000 0.000000
      length 15.039886
      axis 0.0 0.0 0.0 xyz
   end
   begin
      id 6
      name Spine_dum2
      direction 0.000000 1.000000 0.000000
      length 10.530368
      axis 0.0 0.0 0.0 xyz
   end
   begin
      id 7
      name Spine_dum3
      direction 0.000000 1.000000 0.000000
      length 10.530368
      axis 0.0 0.0 0.0 xyz
   end
   begin
      id 8
      name Head
      direction 0.000000 1.000000 0.000000
      length 4.527550
      axis 0.0 0.0 0.0 xyz
      dof rx ry rz
   end
   begin
      id 9
      name LeftShoulder
      direction 1.000000 0.000000 0.000000
      length 7.028855
      axis 0.0 0.0 -90.0 xyz
      dof rx ry rz
   end
   begin
      id 10
      name LeftArm
      direction 1.000000 0.000000 0.000000
      length 10.797705
      axis 0.0 0.0 -90.0 xyz
      dof rx ry rz
   end
   begin
      id 11
      name LeftForeArm
      direction 1.000000 0.000000 0.000000
      length 7.907442
      axis 0.0 0.0 -90.0 xyz
      dof ry rz rx
   end
   begin
      id 12
      name LeftHand
      direction 0.000000 0.000000 0.000000
      length 0.000000
      axis 0.0 0.0 -90.0 xyz
      dof rx ry rz
   end
   begin
      id 13
      name LeftHand_dum1
      direction 0.000000 0.000000 0.000000
      length 0.000000
      axis 0.0 0.0 -90.0 xyz
   end
   begin
      id 14
      name LeftHand_dum2
      direction 1.000000 0.000000 0.000000
      length 3.937000
      axis 0.0 0.0 -90.0 xyz
   end
   begin
      id 15
      name LeftHandThumb1
      direction 0.000000 0.000000 1.000000
      length 3.937000
      axis 0.0 0.0 -90.0 xyz
      dof rx rz ry
   end
   begin
      id 16
      name RightShoulder
      direction -1.000000 0.000000 0.000000
      length 7.028855
      axis 0.0 0.0 90.0 xyz
      dof rx ry rz
   end
   begin
      id 17
      name RightArm
      direction -1.000000 0.000000 0.000000
      length 10.797705
      axis 0.0 0.0 90.0 xyz
      dof rx ry rz
   end
   begin
      id 18
      name RightForeArm
      direction -1.000000 0.000000 0.000000
      length 7.907442
      axis 0.0 0.0 90.0 xyz
      dof ry rz rx
   end
   begin
      id 19
      name RightHand
      direction 0.000000 0.000000 0.000000
      length 0.000000
      axis 0.0 0.0 90.0 xyz
      dof rx ry rz
   end
   begin
      id 20
      name RightHand_dum1
      direction 0.000000 0.000000 0.000000
      length 0.000000
      axis 0.0 0.0 90.0 xyz
   end
   begin
      id 21
      name RightHand_dum2
      direction -1.000000 0.000000 0.000000
      length 3.937000
      axis 0.0 0.0 90.0 xyz
   end
   begin
      id 22
      name RightHandThumb1
      direction 0.000000 0.000000 1.000000
      length 3.937000
      axis 0.0 0.0 90.0 xyz
      dof rx rz ry
   end
   begin
      id 23
      name LeftUpLeg
      direction 0.000000 -1.000000 0.000000
      length 16.899758
      axis 0.0 0.0 0.0 xyz
      dof rx ry rz
   end
   begin
      id 24
      name LeftLeg
      direction 0.000000 -1.000000 0.000000
      length 17.389183
      axis 0.0 0.0 0.0 xyz
      dof rx ry rz
   end
   begin
      id 25
      name LeftFoot
      direction 0.000000 -0.258819 0.965926
      length 4.924528
      axis 15.0 0.0 0.0 xyz
      dof rx ry rz
   end
   begin
      id 26
      name LeftToeBase
      direction 0.000000 0.000000 1.000000
      length 2.952750
      axis 0.0 0.0 0.0 xyz
      dof rx ry rz
   end
   begin
      id 27
      name RightUpLeg
      direction 0.000000 -1.000000 0.000000
      length 16.899758
      axis 0.0 0.0 0.0 xyz
      dof rx ry rz
   end
   begin
      id 28
      name RightLeg
      direction 0.000000 -1.000000 0.000000
      length 17.389183
      axis 0.0 0.0 0.0 xyz
      dof rx ry rz
   end
   begin
      id 29
      name RightFoot
      direction 0.000000 -0.258819 0.965926
      length 4.924528
      axis 15.0 0.0 0.0 xyz
      dof rx ry rz
   end
   begin
      id 30
      name RightToeBase
      direction 0.000000 0.000000 1.000000
      length 2.952750
      axis 0.0 0.0 0.0 xyz
      dof rx ry rz
   end
:hierarchy
   begin
      root Spine_dum LeftUpLeg_dum RightUpLeg_dum
      Spine_dum Spine
      LeftUpLeg_dum LeftUpLeg
      RightUpLeg_dum RightUpLeg
      Spine Spine_dum1 Spine_dum2 Spine_dum3
      Spine_dum1 Head
      Spine_dum2 LeftShoulder
      Spine_dum3 RightShoulder
      LeftShoulder LeftArm
      LeftArm LeftForeArm
      LeftForeArm LeftHand
      LeftHand LeftHand_dum1 LeftHand_dum2
      LeftHand_dum1 LeftHandThumb1
      RightShoulder RightArm
      RightArm RightForeArm
      RightForeArm RightHand
      RightHand RightHand_dum1 RightHand_dum2
      RightHand_dum1 RightHandThumb1
      LeftUpLeg LeftLeg
      LeftLeg LeftFoot
      LeftFoot LeftToeBase
      RightUpLeg RightLeg
      RightLeg RightFoot
      RightFoot RightToeBase
   end

# File created by Blade
# Date/Time:  Fri Jan 16 19:00:24 2015
# Frame Rate: 120.000 fps
#------------------------------------------------------
:FULLY-SPECIFIED
:DEGREES
130
root 20.946046 35.638987 -22.184048 -177.391307 -2.239428 -179.803472
Spine -4.670992 2.273126 -2.634025
Head 7.838929 -4.118383 3.283174
LeftShoulder -10.427486 -17.228231 -2.617744
LeftArm -21.756411 -5.276988 -63.238135
LeftForeArm 0.039589 -0.000000 6.490383
LeftHand -3.251432 -0.000000 3.841910
LeftHandThumb1 -26.253704 0.000000 33.147579
RightShoulder -11.962725 -14.985095 13.074002
RightArm 8.196666 23.941243 69.518589
RightForeArm -25.410255 -0.000000 13.394713
RightHand -3.774765 -0.000000 3.814171
RightHandThumb1 -24.326973 -0.000000 -32.862282
LeftUpLeg -3.376687 6.349884 4.226310
LeftLeg 8.502561 -0.000000 -0.000000
LeftFoot -22.262232 28.211228 -15.110700
LeftToeBase 25.231301 -0.000000 -0.000000
RightUpLeg 2.698799 -7.310518 4.616008
RightLeg -1.324800 -0.000000 0.000000
RightFoot -22.164440 -27.944165 12.292457
RightToeBase 22.681999 -0.000000 -0.000000
131
root 21.000513 35.645144 -22.144566 -177.429059 -2.335776 -179.875659
Spine -4.507900 2.314244 -2.766653
Head 7.670212 -4.208981 3.346042
LeftShoulder -10.359330 -17.214537 -2.632156
LeftArm -22.065104 -5.372985 -63.731284
LeftForeArm 0.105794 0.000000 6.797698
LeftHand -3.296032 -0.000000 3.485504
LeftHandThumb1 -26.253704 0.000000 33.147579
RightShoulder -11.912907 -14.965652 13.238138
RightArm 8.082215 23.547591 69.865945
RightForeArm -25.070375 -0.000000 13.208049
RightHand -3.368103 -0.000000 4.439534
RightHandThumb1 -24.326973 -0.000000 -32.862282
LeftUpLeg -3.779928 5.979125 4.195705
LeftLeg 9.188057 -0.000000 -0.000000
LeftFoot -22.258259 28.581835 -15.074807
LeftToeBase 25.149708 -0.000000 -0.000000
RightUpLeg 2.676574 -7.427885 4.631155
RightLeg -1.324923 -0.000000 0.000000
RightFoot -22.127931 -27.922863 12.251824
RightToeBase 22.670462 -0.000000 -0.000000
132
root 21.063536 35.651177 -22.106631 -177.390005 -2.462069 -179.917834
Spine -4.464111 2.377093 -2.892266
Head 7.546123 -4.280383 3.393525
LeftShoulder -10.323121 -17.025801 -2.626405
LeftArm -22.115246 -5.461054 -64.250351
LeftForeArm 0.210717 -0.000000 6.880111
LeftHand -3.008414 -0.000000 3.169076
LeftHandThumb1 -26.253704 0.000000 33.147579
RightShoulder -11.962540 -14.996363 13.418871
RightArm 8.023821 23.051138 70.225448
RightForeArm -24.998168 -0.000000 13.080205
RightHand -3.186021 -0.000000 5.102688
RightHandThumb1 -24.326973 -0.000000 -32.862282
LeftUpLeg -4.349779 5.762875 4.192781
LeftLeg 10.031682 -0.000000 -0.000000
LeftFoot -22.261452 28.876153 -14.871007
LeftToeBase 25.202027 -0.000000 -0.000000
RightUpLeg 2.575736 -7.571144 4.702134
RightLeg -1.319194 -0.000000 0.000000
RightFoot -22.070030 -27.887876 12.233718
RightToeBase 22.595609 -0.000000 -0.000000
133
root 21.116804 35.657387 -22.065034 -177.398694 -2.534506 -179.999477
Spine -4.355090 2.443863 -3.034527
Head 7.435140 -4.332012 3.448143
LeftShoulder -10.271574 -16.911309 -2.628323
LeftArm -22.254093 -5.617957 -64.724879
LeftForeArm 0.380909 -0.000000 7.016326
LeftHand -2.929425 -0.000000 2.997636
LeftHandThumb1 -26.253704 0.000000 33.147579
RightShoulder -11.950191 -15.064940 13.561929
RightArm 8.064397 22.514738 70.604024
RightForeArm -24.781290 -0.000000 12.933394
RightHand -3.074160 -0.000000 5.537363
RightHandThumb1 -24.326973 -0.000000 -32.862282
LeftUpLeg -4.801876 5.346437 4.131479
LeftLeg 10.754367 -0.000000 -0.000000
LeftFoot -22.266569 29.435079 -14.660862
LeftToeBase 25.153886 -0.000000 -0.000000
RightUpLeg 2.516672 -7.719638 4.705349
RightLeg -1.316351 -0.000000 0.000000
RightFoot -22.018801 -27.825161 12.153096
RightToeBase 22.639905 -0.000000 -0.000000
134
root 21.168756 35.661772 -22.023587 -177.413134 -2.587656 -180.064212
Spine -4.235042 2.523885 -3.132655
Head 7.327592 -4.389327 3.439746
LeftShoulder -10.221179 -16.867324 -2.654307
LeftArm -22.425275 -5.564531 -65.215412
LeftForeArm 0.344322 0.000000 7.171717
LeftHand -2.896404 0.000000 2.357280
LeftHandThumb1 -26.253704 0.000000 33.147579
RightShoulder -11.909427 -15.112434 13.622304
RightArm 8.051640 21.834055 70.953098
RightForeArm -24.613678 -0.000000 12.859553
RightHand -2.949076 -0.000000 6.087685
RightHandThumb1 -24.326973 -0.000000 -32.862282
LeftUpLeg -5.329160 5.071354 4.070727
LeftLeg 11.635102 -0.000000 -0.000000
LeftFoot -22.355125 29.888031 -14.466027
LeftToeBase 24.998324 -0.000000 -0.000000
RightUpLeg 2.472623 -7.812533 4.731222
RightLeg -1.332492 -0.000000 0.000000
RightFoot -21.968822 -27.832343 12.084984
RightToeBase 22.676406 -0.000000 -0.000000
135
root 21.222412 35.666352 -21.980018 -177.400173 -2.693129 -180.110938
Spine -4.139656 2.575058 -3.207658
Head 7.186567 -4.500961 3.416811
LeftShoulder -10.191222 -16.779336 -2.673880
LeftArm -22.465311 -5.491669 -65.700424
LeftForeArm 0.523121 -0.000000 7.159625
LeftHand -2.745299 -0.000000 1.967147
LeftHandThumb1 -26.253704 0.000000 33.147579
RightShoulder -11.879836 -15.209435 13.668847
RightArm 8.090011 21.107913 71.331841
RightForeArm -24.433766 -0.000000 12.847409
RightHand -2.943648 -0.000000 6.500752
RightHandThumb1 -24.326973 -0.000000 -32.862282
LeftUpLeg -5.948231 4.742394 4.016902
LeftLeg 12.612882 -0.000000 -0.000000
LeftFoot -22.450713 30.377924 -14.331299
LeftToeBase 24.419081 -0.000000 -0.000000
RightUpLeg 2.422425 -7.887250 4.788006
RightLeg -1.399665 -0.000000 0.000000
RightFoot -21.899833 -27.897869 12.077546
RightToeBase 22.590406 -0.000000 -0.000000
